<?xml version="1.0" encoding="UTF-8" standalone="no"?><!DOCTYPE svg PUBLIC "-//W3C//DTD SVG 1.1//EN" "http://www.w3.org/Graphics/SVG/1.1/DTD/svg11.dtd"><svg width="100%" height="100%" viewBox="0 0 1627 912" version="1.1" xmlns="http://www.w3.org/2000/svg" xmlns:xlink="http://www.w3.org/1999/xlink" xml:space="preserve" xmlns:serif="http://www.serif.com/" style="fill-rule:evenodd;clip-rule:evenodd;stroke-linecap:round;stroke-linejoin:round;stroke-miterlimit:1.5;"><g><path d="M816.454,0.501l10.845,3.493l10.845,3.492l10.846,3.491l10.847,3.491l10.847,3.491l10.848,3.49l10.849,3.49l10.85,3.49l10.851,3.489l10.851,3.489l10.852,3.488l10.853,3.488l10.853,3.488l10.854,3.487l10.855,3.487l10.855,3.486l10.857,3.486l10.856,3.486l10.858,3.485l10.858,3.484l10.859,3.485l10.859,3.483l10.86,3.484l10.861,3.483l10.861,3.482l10.861,3.482l10.863,3.482l10.862,3.481l10.864,3.48l10.864,3.481l10.864,3.479l10.865,3.479l10.865,3.479l10.866,3.478l10.866,3.478l10.867,3.478l10.867,3.476l10.868,3.477l10.868,3.476l10.869,3.475l10.869,3.475l10.869,3.474l10.87,3.474l10.87,3.473l10.87,3.473l10.871,3.472l10.871,3.472l10.872,3.471l10.872,3.471l10.872,3.47l10.872,3.47l10.873,3.469l10.873,3.468l10.873,3.468l10.874,3.468l10.873,3.466l10.874,3.467l10.875,3.466l10.874,3.465l10.875,3.464l10.875,3.464l10.875,3.464l10.875,3.463l10.875,3.462l2.388,1.109l2.033,1.673l1.549,2.129l0.966,2.449l0.321,2.613l-0.031,6.954l-0.03,6.953l-0.03,6.954l-0.028,6.954l-0.027,6.954l-0.026,6.955l-0.025,6.955l-0.025,6.954l-0.023,6.955l-0.022,6.955l-0.021,6.956l-0.02,6.955l-0.02,6.955l-0.018,6.956l-0.017,6.956l-0.017,6.956l-0.015,6.956l-0.014,6.956l-0.014,6.956l-0.012,6.956l-0.011,6.957l-0.011,6.956l-0.009,6.957l-0.009,6.956l-0.007,6.957l-0.006,6.957l-0.006,6.956l-0.004,6.957l-0.004,6.957l-0.002,6.957l-0.002,6.957l0,6.956l0,6.957l0.002,6.957l0.002,6.957l0.004,6.957l0.004,6.956l0.006,6.957l0.006,6.957l0.007,6.956l0.009,6.957l0.009,6.956l0.011,6.957l0.011,6.956l0.012,6.957l0.014,6.956l0.014,6.956l0.015,6.956l0.017,6.956l0.017,6.956l0.018,6.955l0.02,6.956l0.02,6.955l0.021,6.955l0.022,6.956l0.023,6.954l0.025,6.955l0.025,6.955l0.026,6.954l0.027,6.954l0.028,6.954l0.03,6.954l0.03,6.954l0.031,6.954l-0.321,2.613l-0.966,2.449l-1.549,2.129l-2.033,1.672l-2.388,1.109l-10.875,3.463l-10.875,3.463l-10.875,3.463l-10.875,3.464l-10.875,3.465l-10.874,3.465l-10.875,3.466l-10.874,3.466l-10.873,3.467l-10.874,3.468l-10.873,3.468l-10.873,3.468l-10.873,3.469l-10.872,3.47l-10.872,3.47l-10.872,3.471l-10.872,3.471l-10.871,3.472l-10.871,3.472l-10.87,3.473l-10.87,3.473l-10.87,3.474l-10.869,3.474l-10.869,3.475l-10.869,3.475l-10.868,3.476l-10.868,3.476l-10.867,3.477l-10.867,3.477l-10.866,3.478l-10.866,3.478l-10.865,3.479l-10.865,3.479l-10.864,3.48l-10.864,3.48l-10.864,3.481l-10.862,3.481l-10.863,3.482l-10.861,3.482l-10.861,3.482l-10.861,3.483l-10.86,3.483l-10.859,3.484l-10.859,3.484l-10.858,3.485l-10.858,3.485l-10.856,3.485l-10.857,3.486l-10.855,3.487l-10.855,3.487l-10.854,3.487l-10.853,3.487l-10.853,3.488l-10.852,3.489l-10.851,3.489l-10.851,3.489l-10.85,3.489l-10.849,3.49l-10.848,3.491l-10.847,3.49l-10.847,3.492l-10.846,3.491l-10.845,3.492l-10.845,3.492l-2.113,0.446l-2.159,0l-2.114,-0.446l-10.844,-3.492l-10.845,-3.492l-10.846,-3.491l-10.847,-3.492l-10.847,-3.49l-10.848,-3.491l-10.849,-3.49l-10.85,-3.489l-10.851,-3.489l-10.851,-3.489l-10.852,-3.489l-10.853,-3.488l-10.853,-3.487l-10.854,-3.487l-10.855,-3.487l-10.856,-3.487l-10.856,-3.486l-10.857,-3.485l-10.857,-3.485l-10.858,-3.485l-10.859,-3.484l-10.859,-3.484l-10.86,-3.483l-10.861,-3.483l-10.861,-3.482l-10.862,-3.482l-10.862,-3.482l-10.863,-3.481l-10.863,-3.481l-10.864,-3.48l-10.864,-3.48l-10.865,-3.479l-10.865,-3.479l-10.866,-3.478l-10.867,-3.478l-10.866,-3.477l-10.868,-3.477l-10.867,-3.476l-10.868,-3.476l-10.869,-3.475l-10.869,-3.475l-10.869,-3.474l-10.87,-3.474l-10.87,-3.473l-10.87,-3.473l-10.871,-3.472l-10.871,-3.472l-10.872,-3.471l-10.872,-3.471l-10.872,-3.47l-10.872,-3.47l-10.873,-3.469l-10.873,-3.468l-10.873,-3.468l-10.874,-3.468l-10.874,-3.467l-10.874,-3.466l-10.874,-3.466l-10.874,-3.465l-10.875,-3.465l-10.875,-3.464l-10.875,-3.463l-10.875,-3.463l-10.876,-3.463l-2.387,-1.109l-2.033,-1.672l-1.549,-2.129l-0.966,-2.449l-0.321,-2.613l0.031,-6.954l0.03,-6.954l0.029,-6.954l0.029,-6.954l0.027,-6.954l0.026,-6.954l0.025,-6.955l0.024,-6.955l0.024,-6.955l0.022,-6.955l0.021,-6.955l0.02,-6.955l0.02,-6.956l0.018,-6.955l0.017,-6.956l0.016,-6.956l0.016,-6.956l0.014,-6.956l0.013,-6.956l0.013,-6.957l0.011,-6.956l0.011,-6.956l0.009,-6.957l0.008,-6.957l0.008,-6.956l0.006,-6.957l0.006,-6.957l0.004,-6.956l0.004,-6.957l0.002,-6.957l0.001,-6.957l0.001,-6.957l-0.001,-6.957l-0.001,-6.956l-0.002,-6.957l-0.004,-6.957l-0.004,-6.957l-0.006,-6.956l-0.006,-6.957l-0.008,-6.957l-0.008,-6.956l-0.009,-6.957l-0.011,-6.956l-0.011,-6.957l-0.013,-6.956l-0.013,-6.956l-0.014,-6.956l-0.016,-6.956l-0.016,-6.956l-0.017,-6.956l-0.018,-6.956l-0.02,-6.955l-0.02,-6.955l-0.021,-6.956l-0.022,-6.955l-0.024,-6.955l-0.024,-6.955l-0.025,-6.954l-0.026,-6.955l-0.027,-6.954l-0.029,-6.954l-0.029,-6.954l-0.03,-6.953l-0.031,-6.954l0.321,-2.613l0.966,-2.449l1.549,-2.129l2.033,-1.673l2.387,-1.109l10.876,-3.462l10.875,-3.463l10.875,-3.464l10.875,-3.464l10.875,-3.464l10.874,-3.465l10.874,-3.466l10.874,-3.467l10.874,-3.466l10.874,-3.468l10.873,-3.468l10.873,-3.468l10.873,-3.469l10.872,-3.47l10.872,-3.47l10.872,-3.471l10.872,-3.471l10.871,-3.472l10.871,-3.472l10.87,-3.473l10.87,-3.473l10.87,-3.474l10.869,-3.474l10.869,-3.475l10.869,-3.475l10.868,-3.476l10.867,-3.477l10.868,-3.476l10.866,-3.478l10.867,-3.478l10.866,-3.478l10.865,-3.479l10.865,-3.479l10.864,-3.479l10.864,-3.481l10.863,-3.48l10.863,-3.481l10.862,-3.482l10.862,-3.482l10.861,-3.482l10.861,-3.483l10.86,-3.484l10.859,-3.483l10.859,-3.485l10.858,-3.484l10.857,-3.485l10.857,-3.486l10.856,-3.486l10.856,-3.486l10.855,-3.487l10.854,-3.487l10.853,-3.488l10.853,-3.488l10.852,-3.488l10.851,-3.489l10.851,-3.489l10.85,-3.49l10.849,-3.49l10.848,-3.49l10.847,-3.491l10.847,-3.491l10.846,-3.491l10.845,-3.492l10.844,-3.493l2.114,-0.445l2.159,0l2.113,0.445Zm-14.037,13.408l-10.846,3.492l-10.846,3.492l-10.847,3.491l-10.848,3.491l-10.849,3.491l-10.85,3.49l-10.85,3.489l-10.851,3.49l-10.852,3.489l-10.852,3.488l-10.854,3.488l-10.854,3.488l-10.854,3.488l-10.856,3.487l-10.856,3.486l-10.856,3.486l-10.858,3.486l-10.858,3.485l-10.858,3.485l-10.86,3.484l-10.86,3.484l-10.86,3.484l-10.861,3.483l-10.862,3.482l-10.862,3.483l-10.863,3.481l-10.863,3.482l-10.864,3.48l-10.864,3.481l-10.865,3.48l-10.865,3.479l-10.866,3.479l-10.867,3.478l-10.867,3.478l-10.867,3.478l-10.868,3.477l-10.868,3.476l-10.868,3.476l-10.87,3.476l-10.869,3.475l-10.87,3.474l-10.87,3.474l-10.871,3.474l-10.871,3.473l-10.871,3.472l-10.872,3.472l-10.872,3.471l-10.872,3.471l-10.873,3.47l-10.873,3.47l-10.873,3.469l-10.873,3.469l-10.874,3.468l-10.874,3.468l-10.875,3.467l-10.874,3.466l-10.875,3.466l-10.875,3.466l-10.875,3.465l-10.875,3.464l-10.876,3.463l-10.876,3.464l-10.876,3.462l0.032,6.955l0.03,6.955l0.029,6.955l0.028,6.956l0.027,6.956l0.026,6.955l0.026,6.956l0.024,6.957l0.023,6.956l0.022,6.957l0.022,6.956l0.02,6.957l0.019,6.957l0.018,6.957l0.018,6.958l0.016,6.957l0.015,6.958l0.015,6.957l0.013,6.958l0.012,6.958l0.012,6.957l0.01,6.958l0.01,6.958l0.008,6.958l0.007,6.959l0.007,6.958l0.005,6.958l0.005,6.958l0.003,6.958l0.003,6.959l0.001,6.958l0.001,6.958l-0.001,6.959l-0.001,6.958l-0.003,6.958l-0.003,6.958l-0.005,6.959l-0.005,6.958l-0.007,6.958l-0.007,6.958l-0.008,6.958l-0.01,6.958l-0.01,6.958l-0.012,6.958l-0.012,6.958l-0.013,6.958l-0.015,6.957l-0.015,6.958l-0.016,6.957l-0.018,6.957l-0.018,6.957l-0.019,6.957l-0.02,6.957l-0.022,6.957l-0.022,6.957l-0.023,6.956l-0.024,6.956l-0.026,6.956l-0.026,6.956l-0.027,6.956l-0.028,6.955l-0.029,6.956l-0.03,6.955l-0.032,6.955l10.876,3.462l10.876,3.463l10.876,3.464l10.875,3.464l10.875,3.465l10.875,3.465l10.875,3.466l10.874,3.467l10.875,3.467l10.874,3.467l10.874,3.468l10.873,3.469l10.873,3.469l10.873,3.47l10.873,3.471l10.872,3.47l10.872,3.472l10.872,3.472l10.871,3.472l10.871,3.473l10.871,3.473l10.87,3.474l10.87,3.475l10.869,3.475l10.87,3.475l10.868,3.476l10.868,3.477l10.868,3.477l10.867,3.477l10.867,3.478l10.867,3.479l10.866,3.479l10.865,3.479l10.865,3.48l10.864,3.48l10.864,3.481l10.863,3.481l10.863,3.482l10.862,3.482l10.862,3.483l10.861,3.483l10.86,3.483l10.86,3.484l10.86,3.485l10.858,3.485l10.858,3.485l10.858,3.486l10.856,3.486l10.856,3.486l10.856,3.487l10.854,3.487l10.854,3.488l10.854,3.488l10.852,3.489l10.852,3.489l10.851,3.489l10.85,3.49l10.85,3.49l10.849,3.491l10.848,3.491l10.847,3.491l10.846,3.492l10.846,3.492l10.844,3.492l10.845,-3.492l10.846,-3.492l10.846,-3.492l10.847,-3.491l10.848,-3.491l10.849,-3.491l10.85,-3.49l10.85,-3.49l10.851,-3.489l10.852,-3.489l10.852,-3.489l10.854,-3.488l10.854,-3.488l10.854,-3.487l10.856,-3.487l10.856,-3.486l10.856,-3.486l10.858,-3.486l10.858,-3.485l10.858,-3.485l10.859,-3.485l10.86,-3.484l10.861,-3.483l10.861,-3.483l10.862,-3.483l10.862,-3.482l10.862,-3.482l10.864,-3.481l10.864,-3.481l10.864,-3.48l10.865,-3.48l10.865,-3.479l10.866,-3.479l10.867,-3.479l10.866,-3.478l10.868,-3.477l10.867,-3.477l10.869,-3.477l10.868,-3.476l10.869,-3.475l10.87,-3.475l10.87,-3.475l10.87,-3.474l10.871,-3.473l10.871,-3.473l10.871,-3.472l10.872,-3.472l10.872,-3.472l10.872,-3.47l10.873,-3.471l10.873,-3.47l10.873,-3.469l10.873,-3.469l10.874,-3.468l10.874,-3.467l10.874,-3.467l10.875,-3.467l10.875,-3.466l10.875,-3.465l10.875,-3.465l10.875,-3.464l10.876,-3.464l10.875,-3.463l10.876,-3.462l-0.031,-6.955l-0.03,-6.955l-0.029,-6.956l-0.028,-6.955l-0.027,-6.956l-0.027,-6.956l-0.025,-6.956l-0.024,-6.956l-0.023,-6.956l-0.023,-6.957l-0.021,-6.957l-0.02,-6.957l-0.019,-6.957l-0.019,-6.957l-0.017,-6.957l-0.016,-6.957l-0.016,-6.958l-0.014,-6.957l-0.013,-6.958l-0.013,-6.958l-0.011,-6.958l-0.01,-6.958l-0.01,-6.958l-0.008,-6.958l-0.008,-6.958l-0.006,-6.958l-0.005,-6.958l-0.005,-6.959l-0.003,-6.958l-0.003,-6.958l-0.001,-6.958l-0.001,-6.959l0.001,-6.958l0.001,-6.958l0.003,-6.959l0.003,-6.958l0.005,-6.958l0.005,-6.958l0.006,-6.958l0.008,-6.959l0.008,-6.958l0.01,-6.958l0.01,-6.958l0.011,-6.957l0.013,-6.958l0.013,-6.958l0.014,-6.957l0.016,-6.958l0.016,-6.957l0.017,-6.958l0.019,-6.957l0.019,-6.957l0.02,-6.957l0.021,-6.956l0.023,-6.957l0.023,-6.956l0.024,-6.957l0.025,-6.956l0.027,-6.955l0.027,-6.956l0.028,-6.956l0.029,-6.955l0.03,-6.955l0.031,-6.955l-10.876,-3.462l-10.875,-3.464l-10.876,-3.463l-10.875,-3.464l-10.875,-3.465l-10.875,-3.466l-10.875,-3.466l-10.875,-3.466l-10.874,-3.467l-10.874,-3.468l-10.874,-3.468l-10.873,-3.469l-10.873,-3.469l-10.873,-3.47l-10.873,-3.47l-10.872,-3.471l-10.872,-3.471l-10.872,-3.472l-10.871,-3.472l-10.871,-3.473l-10.871,-3.474l-10.87,-3.474l-10.87,-3.474l-10.87,-3.475l-10.869,-3.476l-10.868,-3.476l-10.869,-3.476l-10.867,-3.477l-10.868,-3.478l-10.866,-3.478l-10.867,-3.478l-10.866,-3.479l-10.865,-3.479l-10.865,-3.48l-10.864,-3.481l-10.864,-3.48l-10.864,-3.482l-10.862,-3.481l-10.862,-3.483l-10.862,-3.482l-10.861,-3.483l-10.861,-3.484l-10.86,-3.484l-10.859,-3.484l-10.858,-3.485l-10.858,-3.485l-10.858,-3.486l-10.856,-3.486l-10.856,-3.486l-10.856,-3.487l-10.854,-3.488l-10.854,-3.488l-10.854,-3.488l-10.852,-3.488l-10.852,-3.489l-10.851,-3.49l-10.85,-3.489l-10.85,-3.49l-10.849,-3.491l-10.848,-3.491l-10.847,-3.491l-10.846,-3.492l-10.846,-3.492l-10.845,-3.492l-10.844,3.492Z" style="fill:#fff;"/><path d="M813.261,29.966c226.808,71.237 454.176,142.237 681.644,212.854c-0.661,141.854 -0.661,283.852 0,425.707c-227.468,70.617 -454.836,141.616 -681.644,212.853c-226.807,-71.237 -454.175,-142.236 -681.644,-212.853c0.662,-141.855 0.662,-283.853 0,-425.707c227.469,-70.617 454.837,-141.617 681.644,-212.854Z" style="fill:none;stroke:#fff;stroke-width:3.96px;"/><path d="M395.021,572.352c11.678,-0.959 23.414,0.261 35.098,-0.549c16.922,-1.174 23.142,0.73 29.123,0.549" style="fill:none;stroke:#fff;stroke-width:6.25px;"/><path d="M1231.5,571.43c-11.678,0.959 -23.414,-0.261 -35.098,0.549c-16.922,1.174 -23.143,-0.73 -29.123,-0.549" style="fill:none;stroke:#fff;stroke-width:6.25px;"/><text x="268.834px" y="461.029px" style="font-family:'PlayfairDisplay-Regular', 'Playfair Display';font-size:266.667px;fill:#fff;">H<tspan x="476.022px 615.501px 740.787px 841.855px 1051.52px 1193.08px 1276.05px " y="461.029px 461.029px 461.029px 461.029px 461.029px 461.029px 461.029px ">artwell</tspan></text><text x="517.192px" y="622.904px" style="font-family:'Oswald-Regular', 'Oswald Regular';font-size:125px;fill:#fff;">R<tspan x="607.072px 682.976px 772.307px 864.69px 954.57px 1045.43px " y="622.904px 622.904px 622.904px 622.904px 622.904px 622.904px ">ECORDS</tspan></text></g></svg>